<?xml version="1.0" encoding="UTF-8"?>
<svg id="Layer_1" xmlns="http://www.w3.org/2000/svg" version="1.1" viewBox="0 0 74.24 73.7">
  <!-- Generator: Adobe Illustrator 30.1.0, SVG Export Plug-In . SVG Version: 2.1.1 Build 136)  -->
  <defs>
    <style>
      .st0 {
        fill: #69b545;
      }

      .st1 {
        fill: #2180bc;
      }

      .st2 {
        fill: #ea1e2e;
      }
    </style>
  </defs>
  <path class="st0" d="M37.12,61.72c-7.74,0-14.65-3.5-19.26-9l-9.18,7.69c1.17,1.4,2.48,2.71,3.87,3.95.23.21.45.43.69.63.47.4.97.76,1.46,1.14.43.33.86.67,1.31.98.43.3.88.57,1.32.85.56.35,1.11.7,1.69,1.03.39.22.78.41,1.17.61.73.38,1.47.74,2.22,1.07.2.09.41.17.61.25,4.35,1.79,9.11,2.79,14.1,2.79,11.49,0,21.76-5.22,28.56-13.42l-9.22-7.65c-4.61,5.55-11.56,9.09-19.34,9.09Z"/>
  <path class="st2" d="M62.26,36.58c0,2.93-.53,5.74-1.45,8.35l11.29,3.98c1.36-3.86,2.14-8,2.14-12.34C74.24,18.44,61.22,3.36,44.02.12l-2.23,11.77c11.65,2.19,20.47,12.4,20.47,24.69Z"/>
  <path class="st1" d="M11.98,36.58c0-12.47,9.1-22.8,21.01-24.77l-1.97-11.81C13.43,2.91,0,18.16,0,36.58c0,2.41.25,4.75.69,7.03.04.22.08.44.12.66.15.73.36,1.44.55,2.16.18.64.36,1.28.57,1.91.06.19.14.37.2.55l11.29-3.98c-.92-2.61-1.45-5.41-1.45-8.34Z"/>
</svg>